<svg width="22" height="22" viewBox="0 0 22 22" fill="none" xmlns="http://www.w3.org/2000/svg">
<mask id="mask0_263_62271" style="mask-type:alpha" maskUnits="userSpaceOnUse" x="4" y="1" width="15" height="19">
<path d="M4 1L9.5 3L8 4.5V17H14V4.5L12.5 3L18.5 1.5V20H4V1Z" fill="#D9D9D9"/>
</mask>
<g mask="url(#mask0_263_62271)">
<rect x="-0.75" y="0.75" width="12.5" height="15.5" rx="1.25" transform="matrix(-1 0 0 1 16.5 3)" stroke="#D4ED3E" stroke-width="1.5"/>
</g>
<mask id="path-3-inside-1_263_62271" fill="white">
<path fill-rule="evenodd" clip-rule="evenodd" d="M11 1C9.89543 1 9 1.89543 9 3C9 3.02839 9.00059 3.05663 9.00176 3.08473C8.41825 3.29015 8 3.84623 8 4.5C8 5.32843 8.67157 6 9.5 6H12.5C13.3284 6 14 5.32843 14 4.5C14 3.84623 13.5818 3.29015 12.9982 3.08473C12.9994 3.05663 13 3.02839 13 3C13 1.89543 12.1046 1 11 1Z"/>
</mask>
<path d="M9.00176 3.08473L9.33382 4.02799L10.0317 3.78231L10.0009 3.04309L9.00176 3.08473ZM12.9982 3.08473L11.9991 3.04309L11.9683 3.78231L12.6662 4.02799L12.9982 3.08473ZM10 3C10 2.44772 10.4477 2 11 2V0C9.34315 0 8 1.34315 8 3H10ZM10.0009 3.04309C10.0003 3.02886 10 3.0145 10 3H8C8 3.04227 8.00088 3.08441 8.00263 3.12638L10.0009 3.04309ZM9 4.5C9 4.28364 9.13798 4.09693 9.33382 4.02799L8.6697 2.14147C7.69851 2.48337 7 3.40883 7 4.5H9ZM9.5 5C9.22386 5 9 4.77614 9 4.5H7C7 5.88071 8.11929 7 9.5 7V5ZM12.5 5H9.5V7H12.5V5ZM13 4.5C13 4.77614 12.7761 5 12.5 5V7C13.8807 7 15 5.88071 15 4.5H13ZM12.6662 4.02799C12.862 4.09693 13 4.28364 13 4.5H15C15 3.40883 14.3015 2.48337 13.3303 2.14147L12.6662 4.02799ZM12 3C12 3.0145 11.9997 3.02886 11.9991 3.04309L13.9974 3.12638C13.9991 3.08441 14 3.04227 14 3H12ZM11 2C11.5523 2 12 2.44772 12 3H14C14 1.34315 12.6569 0 11 0V2Z" fill="#D4ED3E" mask="url(#path-3-inside-1_263_62271)"/>
</svg>
