<svg width="22" height="22" viewBox="0 0 22 22" fill="none" xmlns="http://www.w3.org/2000/svg">
    <path d="M11 2.375a8.625 8.625 0 1 0 0 17.25 8.625 8.625 0 0 0 0-17.25z" fill="#D4ED3E"/>
    <path fill-rule="evenodd" clip-rule="evenodd" d="M16.128 7.38a1.318 1.318 0 0 1 0 1.835L10.84 14.62a1.25 1.25 0 0 1-1.795 0l-3.173-3.243a1.318 1.318 0 0 1 0-1.835 1.25 1.25 0 0 1 1.795 0l2.275 2.326 4.391-4.488a1.25 1.25 0 0 1 1.795 0z" fill="#282828" stroke="#D4ED3E" stroke-width=".8" stroke-linecap="round" stroke-linejoin="round"/>
</svg>
