<svg width="50" height="60" viewBox="0 0 50 60" fill="none" xmlns="http://www.w3.org/2000/svg">
    <path d="M6.76 46.357h6.578v-3.256h-.891v.935H7.651v-.935H6.76v3.256zm.891-1.639h4.796v.946H7.651v-.946zm2.838 4.136v-.968h4.015v-.726H5.572v.726h4.015v.968H6.65v.682h5.819v.858H6.683v2.31h6.974v-.693H7.563v-.957h5.797v-2.2h-2.871zm13.331 3.971v-9.889h-.902v3.806h-1.88v.737h1.88v5.346h.902zm-6.864-3.124v-2.387h3.498V43.86h-4.41v.737h3.53v1.991h-3.509v3.861h.76c1.781 0 3.035-.055 4.52-.319l-.088-.748c-1.419.264-2.618.319-4.3.319zm17.82 1.848v-.748h-4.038v-2.057c1.837-.121 3.124-1.122 3.124-2.563 0-1.573-1.496-2.585-3.575-2.585s-3.597 1.012-3.597 2.585c0 1.441 1.298 2.442 3.135 2.563v2.057H25.81v.748h8.965zm-7.217-5.368c0-1.133 1.144-1.87 2.728-1.87 1.573 0 2.717.737 2.717 1.87s-1.144 1.87-2.717 1.87c-1.584 0-2.728-.737-2.728-1.87zm16.477 6.633v-9.867h-.902v9.867h.902zm-2.893-8.8h-4.62v.726h3.707c-.187 2.343-1.507 4.235-4.158 5.5l.484.737c3.29-1.617 4.587-4.114 4.587-6.963z" fill="#F5F5F5"/>
    <mask id="us5elvesya" style="mask-type:luminance" maskUnits="userSpaceOnUse" x="14" y="10" width="22" height="22">
        <path d="M36 10H14v22h22V10z" fill="#fff"/>
    </mask>
    <g mask="url(#us5elvesya)" fill="#fff" stroke="#282828">
        <path d="M24.029 24.72a1.377 1.377 0 0 0 1.95 0l5.5-5.5a1.38 1.38 0 0 0-1.95-1.95l-3.15 3.15v-9.054a1.375 1.375 0 0 0-2.75 0v9.054l-3.154-3.154a1.378 1.378 0 1 0-1.946 1.954l5.5 5.5z"/>
        <path d="M18.125 25.118a1.375 1.375 0 0 0-2.75 0v2.75a4.126 4.126 0 0 0 4.125 4.124h11a4.126 4.126 0 0 0 4.125-4.125v-2.75a1.375 1.375 0 0 0-2.75 0v2.75a1.373 1.373 0 0 1-1.375 1.375h-11a1.374 1.374 0 0 1-1.375-1.374v-2.75z"/>
    </g>
</svg>
