<svg width="50" height="60" viewBox="0 0 50 60" fill="none" xmlns="http://www.w3.org/2000/svg">
    <rect width="50" height="60" rx="4" fill="#393939"/>
    <path d="M6.76 46.357v-3.256h.891v.935h4.796v-.935h.891v3.256H6.76zm.891-1.639v.946h4.796v-.946H7.651zm2.838 4.136h2.871v2.2H7.563v.957h6.094v.693H6.683v-2.31h5.786v-.858H6.65v-.682h2.937v-.968H5.572v-.726h8.932v.726h-4.015v.968zm13.331 3.971h-.902v-5.346h-1.88v-.737h1.88v-3.806h.902v9.889zm-6.864-3.124c1.683 0 2.882-.055 4.301-.319l.088.748c-1.485.264-2.739.319-4.52.319h-.76v-3.861h3.51v-1.991h-3.532v-.737h4.411v3.454h-3.498v2.387zm17.82 1.848H25.81v-.748h4.015v-2.057c-1.837-.121-3.135-1.122-3.135-2.563 0-1.573 1.518-2.585 3.597-2.585 2.08 0 3.575 1.012 3.575 2.585 0 1.441-1.287 2.442-3.124 2.563v2.057h4.037v.748zm-7.217-5.368c0 1.133 1.144 1.87 2.728 1.87 1.573 0 2.717-.737 2.717-1.87s-1.144-1.87-2.717-1.87c-1.584 0-2.728.737-2.728 1.87zm16.477 6.633h-.902v-9.867h.902v9.867zm-2.893-8.8c0 2.849-1.298 5.346-4.587 6.963l-.484-.737c2.651-1.265 3.971-3.157 4.158-5.5h-3.707v-.726h4.62z" fill="#E1F853"/>
    <mask id="k1ajtfo96a" style="mask-type:luminance" maskUnits="userSpaceOnUse" x="14" y="10" width="22" height="22">
        <path d="M36 10H14v22h22V10z" fill="#fff"/>
    </mask>
    <g mask="url(#k1ajtfo96a)" fill="#E1F853" stroke="#393939">
        <path d="M24.029 24.72a1.377 1.377 0 0 0 1.95 0l5.5-5.5a1.38 1.38 0 0 0-1.95-1.95l-3.15 3.15v-9.054a1.375 1.375 0 0 0-2.75 0v9.054l-3.154-3.154a1.378 1.378 0 1 0-1.946 1.954l5.5 5.5z"/>
        <path d="M18.125 25.118a1.375 1.375 0 0 0-2.75 0v2.75a4.126 4.126 0 0 0 4.125 4.124h11a4.126 4.126 0 0 0 4.125-4.125v-2.75a1.375 1.375 0 0 0-2.75 0v2.75a1.373 1.373 0 0 1-1.375 1.375h-11a1.374 1.374 0 0 1-1.375-1.374v-2.75z"/>
    </g>
</svg>
